<?xml version="1.0" encoding="UTF-8" standalone="no"?>
<!-- Uploaded to: SVG Repo, www.svgrepo.com, Generator: SVG Repo Mixer Tools -->

<svg
   fill="#000000"
   width="800px"
   height="800px"
   viewBox="0 0 32 32"
   id="icon"
   version="1.1"
   xmlns="http://www.w3.org/2000/svg"
   xmlns:svg="http://www.w3.org/2000/svg"
   xmlns:rdf="http://www.w3.org/1999/02/22-rdf-syntax-ns#"
   xmlns:cc="http://creativecommons.org/ns#"
   xmlns:dc="http://purl.org/dc/elements/1.1/">
  <defs
     id="defs4">
    <style
       id="style2">
      .cls-1 {
        fill: none;
      }
    </style>
  </defs>
  <title
     id="title6">flow--connection</title>
  <path
     d="M28,18H22a2.0023,2.0023,0,0,0-2,2v2H14.4141L10,17.5859V12h2a2.0023,2.0023,0,0,0,2-2V4a2.0023,2.0023,0,0,0-2-2H6A2.0023,2.0023,0,0,0,4,4v6a2.0023,2.0023,0,0,0,2,2H8v5.5859L3.293,22.293a.9994.9994,0,0,0,0,1.414l5,5a.9995.9995,0,0,0,1.414,0L14.4141,24H20v2a2.0023,2.0023,0,0,0,2,2h6a2.0023,2.0023,0,0,0,2-2V20A2.0023,2.0023,0,0,0,28,18ZM6,4h6v6H6ZM9,26.5859,5.4141,23,9,19.4141,12.5859,23ZM22,26V20h6v6Z"
     id="path8" />
  <rect
     id="_Transparent_Rectangle_"
     data-name="&lt;Transparent Rectangle&gt;"
     class="cls-1"
     width="32"
     height="32" />
  <path
     style="fill:#e0dede;stroke:#f7f7f7;stroke-width:0.982801;stroke-opacity:1;fill-opacity:1"
     d="m 217.3057,722.922 c -4.95553,-1.71105 -9.58686,-6.11726 -71.50267,-68.02688 -37.83296,-37.82917 -66.91271,-67.67142 -67.857856,-69.63713 -0.909652,-1.8919 -1.839694,-5.90149 -2.066759,-8.91022 -0.822207,-10.89464 -2.339126,-9.10742 64.199885,-75.63983 l 60.4131,-60.4071 V 369.78187 299.2629 h -28.81425 c -31.70696,0 -34.18547,-0.34065 -45.37446,-6.23625 -12.57666,-6.62678 -22.60251,-20.64701 -25.05804,-35.04139 -0.75459,-4.42339 -0.99809,-31.17512 -0.7917,-86.97789 0.29583,-79.988887 0.31397,-80.631454 2.43311,-86.193237 6.38068,-16.746405 19.0158,-28.469597 35.23832,-32.695025 8.83052,-2.300059 164.83156,-2.253296 173.77307,0.05209 16.28159,4.197872 29.3582,16.393326 35.21396,32.841088 l 2.27434,6.388206 v 82.555278 c 0,77.59251 -0.11042,82.95579 -1.83672,89.21756 -3.34415,12.13014 -12.96096,24.11912 -24.11604,30.06471 -10.31184,5.49616 -14.3052,6.02486 -45.5068,6.02486 h -28.29474 v 70.51923 70.51924 l 55.28579,55.27929 55.28579,55.27929 h 69.94637 69.94636 l 0.37759,-30.22113 c 0.34789,-27.84582 0.54145,-30.66155 2.46267,-35.82469 6.17855,-16.60442 18.94184,-28.46334 35.18835,-32.69502 8.83053,-2.30006 164.83157,-2.2533 173.77308,0.0521 16.28159,4.19788 29.3582,16.39333 35.21396,32.8411 l 2.27434,6.3882 v 82.55528 c 0,77.59251 -0.11042,82.95579 -1.83672,89.21756 -3.34415,12.13014 -12.96096,24.11912 -24.11604,30.06471 -11.58351,6.17395 -9.13631,6.02486 -98.89107,6.02486 -90.04639,0 -85.90478,0.26291 -98.23923,-6.23625 -12.34666,-6.50559 -22.45537,-20.44957 -24.99979,-34.48479 -0.58315,-3.21666 -1.0572,-17.64948 -1.0572,-32.18673 V 600 h -70.50541 -70.50542 l -60.94422,60.85527 c -58.93907,58.85305 -61.11984,60.90635 -66.2823,62.40787 -6.70456,1.95003 -8.16518,1.91613 -14.70265,-0.34114 z m 53.2143,-103.02426 44.95915,-44.96714 -45.20886,-45.20085 -45.20886,-45.20086 -45.20887,45.20086 -45.20887,45.20085 44.95916,44.96714 c 24.72754,24.73192 45.1839,44.96712 45.45858,44.96712 0.27467,0 20.73103,-20.2352 45.45857,-44.96712 z M 700.7371,574.93857 V 499.7543 h -75.67567 -75.67568 v 75.18427 75.18428 h 75.67568 75.67567 z m -400,-400 V 99.7543 h -75.67567 -75.67568 v 75.18427 75.18428 h 75.67568 75.67567 z"
     id="path416"
     transform="scale(0.04)" />
  <path
     style="fill:#e0dede;fill-opacity:1;stroke:#f7f7f7;stroke-width:0.982801;stroke-opacity:1"
     d="m 218.91349,722.48139 c -2.03,-0.75294 -5.71509,-3.02763 -8.18908,-5.05488 -5.38173,-4.40992 -83.10988,-81.79825 -111.726615,-111.23817 -21.3683,-21.98296 -22.32156,-23.361 -22.333837,-32.28585 -0.01111,-8.07994 -0.680624,-7.33423 74.901332,-83.42603 l 49.84538,-50.18162 0.0318,-71.00737 0.0318,-71.00737 h -27.33792 c -15.39197,0 -29.88619,-0.46545 -33.16954,-1.06515 -20.12099,-3.67513 -36.11186,-20.87469 -38.75859,-41.68825 -1.08639,-8.54321 -1.11325,-131.8053 -0.0338,-155.281 0.59938,-13.035745 0.80407,-14.095109 3.89277,-20.14742 6.17176,-12.093577 16.13389,-21.339713 27.59385,-25.610648 2.89242,-1.077953 9.18321,-1.876398 18.18182,-2.307688 19.16114,-0.918363 135.99711,-0.69708 150.43929,0.284927 11.02883,0.749914 12.35483,1.064467 18.8291,4.466595 12.48436,6.560342 19.23869,14.167762 24.87422,28.015866 l 2.93521,7.212653 -0.17071,64.485115 c -0.0939,35.46682 -0.43148,73.79588 -0.75021,85.17571 l -0.5795,20.69058 -3.80944,7.70708 c -7.3318,14.83337 -20.80916,24.98605 -35.994,27.1148 -4.05406,0.56833 -18.98035,1.00355 -33.16954,0.96713 l -25.79852,-0.0662 v 71.03355 71.03355 l 55.77716,55.77072 55.77716,55.77072 h 70.51276 70.51277 l 0.0699,-23.83292 c 0.0946,-32.28885 0.76002,-39.00084 4.70123,-47.42301 5.62853,-12.02791 15.89411,-21.71374 27.66135,-26.09918 2.89242,-1.07796 9.18321,-1.87641 18.18182,-2.3077 19.16114,-0.91836 135.99711,-0.69708 150.43929,0.28494 11.02883,0.7499 12.35483,1.06446 18.82909,4.46659 12.48437,6.56034 19.2387,14.16775 24.87423,28.01586 l 2.93521,7.21266 -0.17071,64.48511 c -0.0939,35.46682 -0.43148,73.79588 -0.75021,85.17571 l -0.5795,20.69058 -3.80944,7.70708 c -4.78441,9.6796 -13.25906,18.40247 -22.30607,22.95942 -5.23838,2.63854 -8.29537,3.42989 -16.21421,4.19731 -12.62282,1.2233 -149.5364,1.1884 -161.05574,-0.0411 -16.42586,-1.75311 -29.70167,-11.24344 -37.31062,-26.67183 -4.79861,-9.72995 -5.42364,-15.03115 -5.46341,-46.338 l -0.0322,-25.30704 -71.00737,0.0189 -71.00737,0.0189 -45.20885,44.99282 c -57.01112,56.7387 -76.29465,75.36125 -80.04343,77.29983 -4.31719,2.23251 -10.77409,2.71901 -15.04799,1.13383 z m 52.09786,-102.09221 45.45061,-45.45849 -45.70027,-45.69234 -45.70026,-45.69235 -45.70027,45.69235 -45.70027,45.69234 45.45061,45.45849 c 24.99783,25.00217 45.67529,45.45849 45.94993,45.45849 0.27463,0 20.95209,-20.45632 45.94992,-45.45849 z M 701.7199,574.93857 V 498.7715 h -76.65847 -76.65848 v 76.16707 76.16708 h 76.65848 76.65847 z m -400,-400 V 98.771499 h -76.65847 -76.65848 v 76.167071 76.16708 h 76.65848 76.65847 z"
     id="path3999"
     transform="scale(0.04)" />
  <path
     style="fill:#e0dede;fill-opacity:1;stroke:none;stroke-width:0;stroke-opacity:1;stroke-dasharray:none;paint-order:markers fill stroke"
     d=""
     id="path4001"
     transform="scale(0.04)" />
  <path
     style="fill:#e0dede;fill-opacity:1;stroke:none;stroke-width:0;stroke-dasharray:none;stroke-opacity:1;paint-order:markers fill stroke"
     d="m 220.69215,722.13561 c -1.05176,-0.26758 -3.70532,-1.60115 -5.89681,-2.96349 -4.13399,-2.56989 -114.3374,-112.13868 -127.326053,-126.59284 -8.363745,-9.30742 -9.721202,-11.84228 -9.783681,-18.26969 -0.0381,-3.91899 0.601107,-5.43695 4.545959,-10.79565 2.524658,-3.42951 21.890305,-23.71157 43.034765,-45.07127 21.14447,-21.35968 47.15827,-47.681 57.80844,-58.49181 l 19.36396,-19.65602 0.009,-71.49877 0.009,-71.49877 -25.79852,-0.0432 c -14.18919,-0.0237 -28.97832,-0.41186 -32.86473,-0.8625 -17.41705,-2.01957 -32.47566,-14.64824 -38.76491,-32.50958 l -2.24939,-6.3882 -0.18041,-70.76167 c -0.0992,-38.91892 0.14369,-77.42064 0.53981,-85.55937 0.69672,-14.314736 0.82966,-15.00351 4.07324,-21.10394 4.77231,-8.975612 13.24113,-17.657253 21.41367,-21.951802 5.6335,-2.96032 8.30143,-3.702103 15.97287,-4.441043 12.15259,-1.170581 141.39732,-1.300414 157.01137,-0.157726 10.73089,0.785323 12.9459,1.268729 18.67321,4.075269 9.18902,4.502868 18.27994,13.874339 23.26108,23.978904 l 3.87586,7.862407 -0.14458,85.801481 -0.14458,85.8015 -3.78663,7.41792 c -8.12734,15.92132 -21.26165,25.88375 -36.71045,27.84504 -4.05406,0.51468 -18.98035,0.94943 -33.16954,0.96612 l -25.79852,0.0303 v 71.50197 71.50198 l 56.26853,56.26215 56.26854,56.26215 h 70.88418 70.88417 l 0.4781,-30.22113 c 0.42539,-26.88978 0.69804,-30.89803 2.47338,-36.36181 3.88954,-11.97034 13.32555,-22.95295 24.61858,-28.65365 4.67951,-2.36221 8.06174,-3.23774 15.14597,-3.9207 12.08268,-1.16486 141.36664,-1.2884 156.9227,-0.14995 10.73089,0.78533 12.9459,1.26873 18.67321,4.07527 9.18902,4.50286 18.27994,13.87434 23.26108,23.9789 l 3.87586,7.86241 -0.14458,85.80148 -0.14458,85.8015 -3.78663,7.41792 c -5.43306,10.64329 -13.50162,19.10449 -22.42209,23.51322 -6.49393,3.20948 -8.3769,3.64907 -19.32918,4.51256 -7.06307,0.55687 -42.94489,0.79014 -85.85635,0.55818 -80.24139,-0.43375 -78.03413,-0.28141 -88.77524,-6.12746 -9.71767,-5.28902 -17.8884,-15.36641 -21.91603,-27.03023 -2.05101,-5.93964 -2.23535,-8.47575 -2.62517,-36.11793 l -0.41925,-29.72973 -71.39365,0.0158 -71.39364,0.0158 -24.57003,24.23233 c -13.51351,13.32778 -38.28009,37.78258 -55.03685,54.34401 -40.69142,40.21708 -44.58668,43.72831 -50.03192,45.09945 -4.58316,1.15404 -5.69965,1.20354 -8.88281,0.3937 z m 50.81056,-101.25499 45.94205,-45.94985 -46.19167,-46.18382 -46.19166,-46.18382 -46.19167,46.18382 -46.19167,46.18382 45.94205,45.94985 c 25.26813,25.27241 46.1667,45.94985 46.44129,45.94985 0.27458,0 21.17315,-20.67744 46.44128,-45.94985 z M 702.7027,574.93857 V 497.7887 h -77.64127 -77.64128 v 77.14987 77.14988 h 77.64128 77.64127 z m -400,-400 V 97.788698 h -77.64127 -77.64128 v 77.149872 77.14988 h 77.64128 77.64127 z"
     id="path4072"
     transform="scale(0.04)" />
  <metadata
     id="metadata4437">
    <rdf:RDF>
      <cc:Work
         rdf:about="">
        <dc:title>flow--connection</dc:title>
      </cc:Work>
    </rdf:RDF>
  </metadata>
</svg>
